<?xml version="1.0" encoding="UTF-8" standalone="no"?>
<svg
        version="1.1"
        width="1000"
        height="623"
        viewBox="0 0 1000 623"
        id="svg377"
        sodipodi:docname="logo-full-nobg.svg"
        inkscape:version="1.2.2 (732a01da63, 2022-12-09, custom)"
        xmlns:inkscape="http://www.inkscape.org/namespaces/inkscape"
        xmlns:sodipodi="http://sodipodi.sourceforge.net/DTD/sodipodi-0.dtd"
        xmlns="http://www.w3.org/2000/svg"
>
    <defs
            id="defs381">
        <defs
                id="defs366"/>
    </defs>
    <sodipodi:namedview
            id="namedview379"
            pagecolor="#505050"
            bordercolor="#ffffff"
            borderopacity="1"
            inkscape:showpageshadow="0"
            inkscape:pageopacity="0"
            inkscape:pagecheckerboard="1"
            inkscape:deskcolor="#505050"
            showgrid="false"
            inkscape:zoom="0.92630988"
            inkscape:cx="501.45206"
            inkscape:cy="281.22338"
            inkscape:window-width="1920"
            inkscape:window-height="1016"
            inkscape:window-x="0"
            inkscape:window-y="27"
            inkscape:window-maximized="1"
            inkscape:current-layer="svg377"/>
    <g
            id="g957"
            transform="matrix(3.3721622,0,0,3.3245389,-154.7477,-98.913006)">
        <svg
                viewBox="0 0 395.52 247.2"
                height="247.2"
                width="395.51999"
                version="1.1"
                id="svg362">
            <g
                    transform="translate(75.54432,59.365165)"
                    id="g356">
                <svg
                        viewBox="0 0 244.43136 128.46967"
                        height="128.46967"
                        width="244.43137"
                        version="1.1"
                        id="svg354">
                    <g
                            id="g352">
                        <svg
                                viewBox="0 0 245.65352 129.11202"
                                height="128.46967"
                                width="244.43137"
                                version="1.1"
                                id="svg350">
                            <g
                                    id="g315">
                                <rect
                                        width="245.65352"
                                        height="3.6933427"
                                        x="0"
                                        y="66.267914"
                                        fill="#e04357"
                                        opacity="1"
                                        stroke-width="0"
                                        stroke="transparent"
                                        fill-opacity="1"
                                        class="rect-o-0"
                                        data-fill-palette-color="primary"
                                        rx="1%"
                                        id="o-0"
                                        data-palette-color="#e04357"/>
                            </g>
                            <g
                                    id="g318">
                                <rect
                                        width="245.65352"
                                        height="3.6933427"
                                        x="0"
                                        y="74.795479"
                                        fill="#e04357"
                                        opacity="1"
                                        stroke-width="0"
                                        stroke="transparent"
                                        fill-opacity="1"
                                        class="rect-o-1"
                                        data-fill-palette-color="primary"
                                        rx="1%"
                                        id="o-1"
                                        data-palette-color="#e04357"/>
                            </g>
                            <g
                                    transform="translate(0.6110784,88.157257)"
                                    id="g335">
                                <svg
                                        viewBox="0 0 244.43136 40.954762"
                                        height="40.954762"
                                        width="244.43137"
                                        version="1.1"
                                        id="svg333">
                                    <g
                                            id="g331">
                                        <svg
                                                viewBox="0 0 244.43136 40.954762"
                                                height="40.954762"
                                                width="244.43137"
                                                version="1.1"
                                                id="svg329">
                                            <g
                                                    id="g327">
                                                <svg
                                                        viewBox="0 0 244.43136 40.954762"
                                                        height="40.954762"
                                                        width="244.43137"
                                                        version="1.1"
                                                        id="svg325">
                                                    <g
                                                            id="g323">
                                                        <svg
                                                                width="244.43137"
                                                                viewBox="2.5 -43.650002 263.78 44.200001"
                                                                height="40.954762"
                                                                data-palette-color="#e04357"
                                                                version="1.1"
                                                                id="svg321">
                                                            <path
                                                                    d="m 28.2,-21.15 q 3.85,1.1 6.05,3.7 2.2,2.6 2.2,6 v 0 q 0,3.15 -2.52,5.92 -2.53,2.78 -6.3,4.43 -3.78,1.65 -7.18,1.65 v 0 q -2.5,0 -4.9,-0.25 v 0 q -4,-0.25 -6.2,-0.25 v 0 H 3 V -1.5 l 4.7,-3.7 v -30.4 l -5.2,-1.7 1,-2 h 5.8 q 4.55,0 8.95,-0.3 v 0 q 3.4,-0.2 5,-0.2 v 0 q 3.35,0 5.9,1.3 2.55,1.3 3.93,3.52 1.37,2.23 1.37,4.98 v 0 q 0,2.5 -1.72,4.77 -1.73,2.28 -4.53,3.98 v 0 z m -0.5,-6.35 q 0,-3.95 -2.1,-6.45 -2.1,-2.5 -6.25,-2.5 v 0 q -3,0 -5.4,1.7 v 0 13.25 h 7.15 q 3.1,0 4.85,-1.58 1.75,-1.57 1.75,-4.47 v 0 z m -5.85,24.4 q 3.6,0 5.73,-1.8 2.12,-1.8 2.12,-4.85 v 0 q 0,-3.9 -2.27,-6.3 -2.28,-2.4 -6.78,-2.55 v 0 q -0.35,0.05 -0.95,0.05 v 0 H 13.95 V -4.4 q 3.35,1.35 7.9,1.35 v 0 z M 58,-27.05 q 3.3,0 5.92,1.72 2.63,1.73 4.1,4.68 1.48,2.95 1.48,6.5 v 0 q 0,3.85 -2.35,7.22 -2.35,3.38 -5.88,5.4 -3.52,2.03 -6.82,2.03 v 0 q -3.3,0 -5.93,-1.73 -2.62,-1.72 -4.1,-4.67 -1.47,-2.95 -1.47,-6.5 v 0 q 0,-3.85 2.35,-7.23 2.35,-3.37 5.87,-5.4 3.53,-2.02 6.83,-2.02 z m -2.9,4.2 q -5.65,0 -5.65,8.05 v 0 q 0,4.75 2.05,7.92 2.05,3.18 5.85,3.18 v 0 q 5.65,0 5.65,-8.1 v 0 q 0,-4.7 -2.05,-7.88 -2.05,-3.17 -5.85,-3.17 z m 36.45,-4.2 q 3.29,0 5.92,1.72 2.62,1.73 4.1,4.68 1.48,2.95 1.48,6.5 v 0 q 0,3.85 -2.35,7.22 -2.36,3.38 -5.88,5.4 Q 91.3,0.5 88,0.5 v 0 q -3.3,0 -5.93,-1.73 -2.62,-1.72 -4.1,-4.67 -1.47,-2.95 -1.47,-6.5 v 0 q 0,-3.85 2.34,-7.23 2.36,-3.37 5.88,-5.4 3.53,-2.02 6.83,-2.02 z m -2.9,4.2 q -5.65,0 -5.65,8.05 v 0 q 0,4.75 2.05,7.92 2.04,3.18 5.85,3.18 v 0 q 5.65,0 5.65,-8.1 v 0 q 0,-4.7 -2.05,-7.88 -2.05,-3.17 -5.85,-3.17 z m 30.09,19.1 4.5,1.75 -1,2 h -13.95 v -1.55 l 4.45,-3.5 V -35.8 l -4.45,-3.1 v -1.55 l 8.55,-3.2 h 1.9 z m 21.5,1.75 -1,2 h -8.45 l -9.4,-13.2 9.35,-7.85 -4.8,-3.5 1,-2 h 11.95 V -25 l -11.6,9.75 8.45,11.5 z m 45.95,0 -1,2 h -15.2 v -1.55 l 4.7,-3.7 v -13.2 H 154.94 V -3.8 l 5.25,1.8 -1,2 h -15.2 v -1.55 l 4.7,-3.7 v -30.3 l -5.2,-1.75 1,-2 h 15.2 v 1.55 l -4.75,3.7 v 13.35 h 19.75 v -14.85 l -5.2,-1.75 1,-2 h 15.2 v 1.55 l -4.75,3.7 V -3.8 Z m 20.2,0 -1,2 h -13.95 v -1.55 l 4.45,-3.5 v -14.6 l -4.45,-3.1 v -1.55 l 8.55,-3.2 h 1.9 v 23.75 z m -7.7,-40.5 q 1.5,0 2.47,1.1 0.98,1.1 0.98,2.75 v 0 q 0,1.15 -0.7,2.17 -0.7,1.03 -1.75,1.63 -1.05,0.6 -2.05,0.6 v 0 q -1.5,0 -2.48,-1.1 -0.97,-1.1 -0.97,-2.75 v 0 q 0,-1.15 0.7,-2.18 0.7,-1.02 1.75,-1.62 1.05,-0.6 2.05,-0.6 z m 38.59,15.95 V -25 L 224.63,0 h -3.8 l -7.8,-19.05 -4.65,-2.7 v -1.55 l 8.56,-4.2 1.89,7.55 6.11,14.9 7.04,-14.65 -6.65,-4.85 1,-2 z m 29,19.65 -8.85,7 q -2,0.4 -4.8,0.4 v 0 q -3.3,0 -5.92,-1.73 -2.63,-1.72 -4.1,-4.67 -1.48,-2.95 -1.48,-6.5 v 0 q 0,-3.85 2.35,-7.23 2.35,-3.37 5.88,-5.4 3.52,-2.02 6.82,-2.02 v 0 q 4.75,0 7.38,3.75 2.62,3.75 2.62,9.9 v 0 h -18.5 q 0.3,4.25 2.33,6.95 2.02,2.7 5.52,2.7 v 0 q 3.25,0 9.25,-5.05 v 0 z m -13,-15.95 q -5.4,0 -5.65,7.4 v 0 h 11.7 q -0.45,-2.7 -0.92,-4.13 -0.48,-1.42 -1.65,-2.35 -1.18,-0.92 -3.48,-0.92 z"
                                                                    opacity="1"
                                                                    fill="#e04357"
                                                                    class="undefined-text-0"
                                                                    data-fill-palette-color="primary"
                                                                    id="text-0"/>
                                                        </svg>
                                                    </g>
                                                </svg>
                                            </g>
                                        </svg>
                                    </g>
                                </svg>
                            </g>
                            <g
                                    transform="translate(94.500579)"
                                    id="g346">
                                <svg
                                        viewBox="0 0 56.652358 56.599481"
                                        height="56.59948"
                                        width="56.652359"
                                        version="1.1"
                                        id="svg344">
                                    <g
                                            id="g342">
                                        <svg
                                                version="1.1"
                                                x="0"
                                                y="0"
                                                viewBox="5.0469999 5.6687498 89.734001 89.650246"
                                                enable-background="new 0 0 100 100"
                                                xml:space="preserve"
                                                height="56.59948"
                                                width="56.652359"
                                                class="icon-icon-0"
                                                data-fill-palette-color="accent"
                                                id="icon-0"><g
                         fill="#ffffff"
                         data-fill-palette-color="accent"
                         id="g339"><path
                           d="M 94.281,17.854 73.418,5.803 c -0.309,-0.179 -0.691,-0.179 -1,0 l -20.869,12.05 c -0.311,0.179 -0.5,0.509 -0.5,0.866 v 24.096 c 0,0.357 0.189,0.688 0.5,0.866 L 72.418,55.73 c 0.154,0.09 0.326,0.135 0.5,0.135 0.172,0 0.346,-0.045 0.5,-0.135 L 94.281,43.68 c 0.309,-0.178 0.5,-0.508 0.5,-0.866 V 18.719 c 0,-0.357 -0.191,-0.687 -0.5,-0.865 z M 92.781,42.238 72.918,53.71 53.049,42.238 V 19.296 L 72.918,7.823 92.781,19.296 Z M 48.777,42.815 V 18.719 c 0,-0.357 -0.189,-0.688 -0.5,-0.866 L 27.414,5.803 c -0.311,-0.179 -0.691,-0.178 -1,0 L 5.547,17.853 c -0.311,0.179 -0.5,0.509 -0.5,0.866 v 24.096 c 0,0.357 0.189,0.688 0.5,0.866 L 26.414,55.73 c 0.154,0.09 0.326,0.135 0.5,0.135 0.172,0 0.346,-0.045 0.5,-0.135 L 48.277,43.68 c 0.311,-0.178 0.5,-0.508 0.5,-0.865 z m -2,-5.587 L 22.35,51.075 18.588,48.903 46.777,32.986 Z m 0,-5.103 L 17.834,48.467 14.121,46.323 46.777,27.786 Z M 13.367,45.888 9.601,43.713 46.777,22.497 v 4.427 z M 7.047,28.786 V 24.407 L 31.563,10.51 35.331,12.686 Z M 36.082,13.119 39.965,15.362 7.047,33.838 V 29.649 Z M 7.047,34.699 40.721,15.798 44.354,17.897 7.047,39.013 Z M 26.914,7.823 30.81,10.073 7.047,23.544 V 19.296 Z M 7.047,39.874 45.108,18.332 l 1.67,0.965 v 2.336 L 8.85,43.279 7.047,42.238 Z M 26.914,53.71 23.103,51.51 46.777,38.09 v 4.148 z M 71.203,57.307 50.346,45.259 c -0.309,-0.179 -0.689,-0.179 -1,0 L 28.477,57.307 c -0.309,0.18 -0.5,0.51 -0.5,0.867 V 82.27 c 0,0.357 0.191,0.688 0.5,0.865 l 20.869,12.049 c 0.154,0.09 0.328,0.135 0.5,0.135 0.174,0 0.346,-0.045 0.5,-0.135 L 71.203,83.135 c 0.311,-0.178 0.5,-0.508 0.5,-0.865 V 58.174 c 0,-0.358 -0.189,-0.688 -0.5,-0.867 z M 69.703,81.691 49.846,93.164 29.977,81.691 V 58.75 L 49.846,47.28 69.703,58.75 Z M 27.732,54.865"
                           fill="#ffffff"
                           data-fill-palette-color="accent"
                           id="path337" /></g></svg>
                                    </g>
                                </svg>
                            </g>
                        </svg>
                    </g>
                </svg>
            </g>
            <g
                    id="g360">
                <path
                        d="m 136.636,49.745 a 122.216,122.216 0 0 1 122.248,0 h -3.675 a 118.541,118.541 0 0 0 -114.898,0 h -3.675 m 0,147.71 a 122.216,122.216 0 0 0 122.248,0 h -3.675 a 118.541,118.541 0 0 1 -114.898,0 h -3.675"
                        fill="#ff4057"
                        stroke="transparent"
                        data-fill-palette-color="tertiary"
                        id="path358"
                        inkscape:label="elipsoid_outlines"/>
            </g>
        </svg>
    </g>
</svg>
